# xmcd
#
# Track frame offsets:
#	150
#	15361
#	33936
#	47951
#	64846
#	81674
#	100786
#	126554
#	139644
#	158456
#	176958
#	193820
#
# Disc length: 2791 seconds
#
# Revision: 0
# Processed by: cddbd v1.5.2PL0 Copyright (c) Steve Scherf et al.
# Submitted via: audiograbber 1.83.01
#
DISCID=a50ae50c
DTITLE=Jean Prescott - Sweethearts In Carhartts Jean Prescott
DYEAR=2006
DGENRE=Country
TTITLE0=march winds
TTITLE1=all my trails
TTITLE2=money talks
TTITLE3=leaving the home place
TTITLE4=just one more rain
TTITLE5=her feet would rock the cradle
TTITLE6=ranch wife's prayer
TTITLE7=the carhartt song
TTITLE8=the boots her daddy wore
TTITLE9=hollyhock memories
TTITLE10=dining out
TTITLE11=old hands
EXTD=
EXTT0=
EXTT1=
EXTT2=
EXTT3=
EXTT4=
EXTT5=
EXTT6=
EXTT7=
EXTT8=
EXTT9=
EXTT10=
EXTT11=
PLAYORDER=
